#!OML:ASF F:\VICON\USERDATA\INSTALL\rory3\rory3.ASF
:FULLY-SPECIFIED
:DEGREES
497
root -1.06974 17.9057 5.03429 181.634 144.316 -179.549
lowerback 20.2692 -0.457954 -3.70935
upperback 1.82711 -0.943472 4.22956
thorax -9.23597 -0.181232 7.06398
lowerneck -11.6214 -3.91905 -4.26298
upperneck 18.9166 -3.8479 -3.00897
head 7.79354 -2.38448 -0.670383
rclavicle -5.34731e-014 -4.85035e-014
rhumerus -25.9987 -30.9858 -66.2051
rradius 88.245
rwrist -68.2834
rhand 4.70712 -2.94875
rfingers 7.12502
rthumb 30.0906 -30.5196
lclavicle -5.34731e-014 -4.85035e-014
lhumerus -50.1401 4.56255 83.9709
lradius 49.1477
lwrist 7.14828
lhand -9.35661 50.8491
lfingers 7.12502
lthumb 16.6031 80.1589
rfemur -21.2816 6.14741 17.8926
rtibia 39.9741
rfoot -23.3362 5.8165
rtoes -14.9564
lfemur -14.9678 4.79955 -25.6798
ltibia 34.9891
lfoot -18.4066 22.0559
ltoes -1.71033
498
root -1.03659 17.8954 5.00998 181.969 144.964 -179.35
lowerback 20.0102 -0.62972 -3.6669
upperback 1.68846 -1.16928 4.1286
thorax -9.21743 -0.292963 6.98049
lowerneck -11.8793 -3.94024 -4.30046
upperneck 18.7723 -3.92629 -2.70919
head 7.79856 -2.39761 -0.577745
rclavicle 2.20651e-014 -3.18055e-014
rhumerus -25.4303 -31.3429 -65.8373
rradius 89.3611
rwrist -67.4532
rhand 5.05533 -3.14974
rfingers 7.12502
rthumb 30.4227 -30.6596
lclavicle 2.20651e-014 -3.18055e-014
lhumerus -49.5115 4.65507 83.0998
lradius 48.7093
lwrist 6.31475
lhand -9.10437 49.8908
lfingers 7.12502
lthumb 16.846 79.1801
rfemur -21.6866 5.2691 17.5975
rtibia 40.2983
rfoot -23.6619 4.44247
rtoes -11.8456
lfemur -15.1015 4.93153 -26.1018
ltibia 34.8403
lfoot -18.312 22.5981
ltoes -2.44818
499
root -1.01902 17.8892 4.99029 179.509 145.779 -179.42
lowerback 22.8406 -0.60225 -3.78858
upperback 2.17532 -1.19879 4.16037
thorax -10.2077 -0.263177 7.21527
lowerneck -12.1377 -3.94636 -4.34643
upperneck 18.7156 -3.94854 -2.55485
head 7.83016 -2.39901 -0.527082
rclavicle 8.98507e-014 -5.56597e-015
rhumerus -24.5578 -31.5735 -65.3905
rradius 90.4839
rwrist -66.9452
rhand 3.93626 -4.56853
rfingers 7.12502
rthumb 29.3548 -32.2707
lclavicle 8.98507e-014 -5.56597e-015
lhumerus -48.8391 4.86514 82.4332
lradius 48.2918
lwrist 5.67219
lhand -9.11171 48.8924
lfingers 7.12502
lthumb 16.8389 78.1823
rfemur -19.0375 5.28895 17.948
rtibia 40.6248
rfoot -24.0224 1.91715
rtoes -7.21502
lfemur -12.2151 5.63926 -25.8625
ltibia 34.5981
lfoot -18.8701 22.8773
ltoes -1.86836
500
root -0.997272 17.8893 4.9871 179.529 146.806 -179.51
lowerback 22.592 -0.523401 -4.00718
upperback 2.05389 -1.14001 4.24485
thorax -10.2128 -0.222618 7.41606
lowerneck -11.8834 -4.0366 -4.32312
upperneck 18.5221 -4.11988 -2.45795
head 7.72298 -2.46703 -0.508201
rclavicle -5.86415e-014 -2.14687e-014
rhumerus -23.9573 -31.8883 -64.6711
rradius 90.729
rwrist -64.793
rhand 5.44861 -3.06127
rfingers 7.12502
rthumb 30.7978 -30.5011
lclavicle -5.86415e-014 -2.14687e-014
lhumerus -48.4417 4.6885 81.8874
lradius 48.214
lwrist 5.293
lhand -9.10003 48.1396
lfingers 7.12502
lthumb 16.8502 77.4285
rfemur -19.3283 5.08399 18.0054
rtibia 41.0384
rfoot -24.0522 -1.13766
rtoes -4.3242
lfemur -12.1449 6.36309 -25.8481
ltibia 34.4108
lfoot -19.241 22.9479
ltoes -0.611135
501
root -0.978728 17.8851 4.97802 179.875 147.524 -179.207
lowerback 22.4038 -0.450638 -4.40252
upperback 1.8462 -1.14813 4.20538
thorax -10.3367 -0.201558 7.60674
lowerneck -11.8351 -4.15466 -4.3466
upperneck 18.4439 -4.34971 -2.13809
head 7.69745 -2.54793 -0.421127
rclavicle -2.62396e-014 1.19271e-014
rhumerus -23.6843 -32.3379 -63.6922
rradius 91.5806
rwrist -64.0541
rhand 5.33762 -2.91618
rfingers 7.12502
rthumb 30.692 -30.3759
lclavicle -2.62396e-014 1.19271e-014
lhumerus -48.0495 4.17211 81.4461
lradius 48.4338
lwrist 5.22227
lhand -9.25508 48.2721
lfingers 7.12502
lthumb 16.7009 77.5737
rfemur -19.7912 4.47769 17.6456
rtibia 41.4988
rfoot -24.2814 -4.93941
rtoes -4.86912
lfemur -12.1977 6.70568 -26.2459
ltibia 34.2162
lfoot -19.4905 23.0207
ltoes 1.05174
502
root -0.950929 17.8785 4.9572 180.607 147.949 -178.33
lowerback 22.1459 -0.492007 -4.95977
upperback 1.69206 -1.36199 4.00053
thorax -10.327 -0.281624 7.75824
lowerneck -12.1682 -4.24429 -4.38864
upperneck 18.5324 -4.50631 -1.84648
head 7.79521 -2.60088 -0.344406
rclavicle -1.90833e-014 4.6118e-014
rhumerus -23.4704 -32.952 -62.7654
rradius 92.5836
rwrist -63.3342
rhand 5.42899 -2.91239
rfingers 7.12502
rthumb 30.7791 -30.3557
lclavicle -1.90833e-014 4.6118e-014
lhumerus -47.3811 3.95688 80.9275
lradius 48.7128
lwrist 5.15123
lhand -9.61974 48.8344
lfingers 7.12502
lthumb 16.3498 78.1653
rfemur -20.2188 3.30517 16.7542
rtibia 41.9567
rfoot -24.3534 -8.3776
rtoes -3.35605
lfemur -12.4307 6.67781 -27.2102
ltibia 34.377
lfoot -20.3817 22.681
ltoes 4.14727
